# xmcd CD database file
#
# Track frame offsets:
#	150
#	11655
#	27190
#	40517
#	53092
#	66795
#	80415
#	92250
#	105537
#	115147
#	132267
#	145145
#	158247
#	174840
#	188677
#	201047
#	213955
#	228775
#	246687
#	258812
#	270727
#	285340
#
# Disc length: 4013 seconds
#
# Revision: 3
# Processed by: cddbd v1.5.2PL0 Copyright (c) Steve Scherf et al.
# Submitted via: CDex 1.70beta2
#
DISCID=1c0fab16
DTITLE=Frank Sinatra - The Wonderful World of Frank Sinatra 1952-1960
DYEAR=1988
DGENRE=Jazz
TTITLE0=Castle Rock
TTITLE1=Birth Of The Blues
TTITLE2=From Here To Eternity
TTITLE3=Young At Heart
TTITLE4=Three Coins In A Fountain
TTITLE5=Learnin' The Blues
TTITLE6=Love And Marriage
TTITLE7=(Love Is) The Tender Trap
TTITLE8=All Of Me
TTITLE9=You're Sensational
TTITLE10=Witchcraft
TTITLE11=You Make Me Feel So Young
TTITLE12=I've Got You Under My Skin
TTITLE13=Cheek To Cheek
TTITLE14=Nice 'N' Easy
TTITLE15=I Get A Kick Out Of You
TTITLE16=Come Fly With Me
TTITLE17=Night And Day
TTITLE18=Pennies From Heaven
TTITLE19=Love Is Here To Stay
TTITLE20=The Lady Is A Tramp
TTITLE21=Mood Indigo
EXTD=YEAR: 1988
EXTT0=
EXTT1=
EXTT2=
EXTT3=
EXTT4=
EXTT5=
EXTT6=
EXTT7=
EXTT8=
EXTT9=
EXTT10=
EXTT11=
EXTT12=
EXTT13=
EXTT14=
EXTT15=
EXTT16=
EXTT17=
EXTT18=
EXTT19=
EXTT20=
EXTT21=
PLAYORDER=
